<?xml version="1.0" encoding="UTF-8"?>
<svg xmlns="http://www.w3.org/2000/svg" viewBox="0 0 30 30" width="30px" height="30px">
<g id="surface5594435">
<path style=" stroke:none;fill-rule:nonzero;fill:rgb(80.000001%,80.000001%,80.000001%);fill-opacity:1;" d="M 5.699219 24.300781 L 5.699219 5.699219 L 24.300781 5.699219 L 24.300781 24.300781 Z M 5.699219 24.300781 "/>
<path style=" stroke:none;fill-rule:nonzero;fill:rgb(0%,0%,0%);fill-opacity:1;" d="M 16.320312 16.761719 L 16.320312 15.878906 C 16.519531 15.78125 17.085938 15.109375 17.144531 14.582031 C 17.300781 14.570312 17.542969 14.425781 17.617188 13.863281 C 17.65625 13.558594 17.5 13.386719 17.40625 13.335938 C 17.40625 13.335938 17.640625 12.894531 17.640625 12.359375 C 17.640625 11.292969 17.21875 10.382812 16.320312 10.382812 C 16.320312 10.382812 16.007812 9.722656 15 9.722656 C 13.132812 9.722656 12.359375 10.917969 12.359375 12.359375 C 12.359375 12.847656 12.59375 13.335938 12.59375 13.335938 C 12.5 13.386719 12.34375 13.558594 12.382812 13.863281 C 12.457031 14.425781 12.699219 14.570312 12.855469 14.582031 C 12.914062 15.109375 13.480469 15.78125 13.679688 15.878906 L 13.679688 16.761719 C 13.238281 18.082031 9.71875 17.199219 9.71875 20.28125 L 20.28125 20.28125 C 20.28125 17.199219 16.761719 18.082031 16.320312 16.761719 Z M 16.320312 16.761719 "/>
</g>
</svg>
